<svg width="13" height="13" viewBox="0 0 13 13" fill="none" xmlns="http://www.w3.org/2000/svg">
<path fill-rule="evenodd" clip-rule="evenodd" d="M12.6255 0.625582C12.153 0.153102 11.3869 0.153166 10.9144 0.625723L6.92343 4.61668L3.00884 0.702095C2.53636 0.229615 1.77026 0.229679 1.2977 0.702236C0.825145 1.17479 0.825082 1.9409 1.29756 2.41338L5.21214 6.32796L1.22119 10.3189C0.74863 10.7915 0.748567 11.5576 1.22105 12.0301C1.69353 12.5025 2.45963 12.5025 2.93219 12.0299L6.92314 8.03896L10.8377 11.9535C11.3102 12.426 12.0763 12.426 12.5489 11.9534C13.0214 11.4808 13.0215 10.7147 12.549 10.2423L8.63443 6.32768L12.6254 2.33672C13.0979 1.86417 13.098 1.09806 12.6255 0.625582Z" fill="#8E8E93"/>
</svg>
