<svg width="15" height="16" viewBox="0 0 15 16" fill="none" xmlns="http://www.w3.org/2000/svg">
<path d="M7.50018 9.25C11.0281 9.25 13.3892 10.2345 14.5834 12.2035C14.8205 12.5944 14.9459 13.0428 14.9459 13.5C14.9459 14.8807 13.8266 16 12.4459 16H2.5545C2.09732 16 1.64889 15.8746 1.258 15.6375C0.0774564 14.9215 -0.299096 13.384 0.416955 12.2035C1.61122 10.2345 3.9723 9.25 7.50018 9.25ZM7.50018 0C9.70932 0 11.5002 1.79086 11.5002 4C11.5002 6.20914 9.70932 8 7.50018 8C5.29104 8 3.50018 6.20914 3.50018 4C3.50018 1.79086 5.29104 0 7.50018 0Z" fill="#F2F2F2"/>
</svg>
